<?xml version="1.0" encoding="utf-8"?>
<!-- Generator: Adobe Illustrator 26.4.1, SVG Export Plug-In . SVG Version: 6.00 Build 0)  -->
<svg version="1.1" id="Layer_1" xmlns="http://www.w3.org/2000/svg" xmlns:xlink="http://www.w3.org/1999/xlink" x="0px" y="0px"
	 viewBox="0 0 839.8 119.8" style="enable-background:new 0 0 839.8 119.8;" xml:space="preserve">
<style type="text/css">
	.st0{fill:#8996AF;}
	.st1{fill:#316E65;}
</style>
<g>
	<polygon class="st0" points="0,117.8 34,117.8 34,76.8 76.8,76.8 76.8,51.3 34,51.3 34,29 81.3,29 81.3,2.1 0,2.1 	"/>
	<path class="st0" d="M179.8,7.3C171,2.4,160.7,0,148.7,0s-22.2,2.4-30.9,7.3c-8.7,4.8-15.4,11.7-20.2,20.7
		c-4.8,8.9-7.1,19.6-7.1,31.9V60c0,12.3,2.4,22.9,7.1,31.9c4.7,9,11.4,15.9,20.2,20.7c8.7,4.8,19,7.3,30.9,7.3s22.4-2.4,31.1-7.3
		c8.7-4.9,15.4-11.8,20.2-20.7c4.7-8.9,7.1-19.6,7.1-31.9v-0.2c0-12.3-2.4-22.9-7.1-31.8C195.2,19.1,188.5,12.2,179.8,7.3L179.8,7.3
		z M172.4,60c0,6.6-1,12.3-2.9,17.1s-4.6,8.5-8.2,11.1c-3.5,2.6-7.8,3.9-12.7,3.9s-8.9-1.3-12.4-3.9c-3.5-2.6-6.3-6.3-8.2-11.1
		s-2.9-10.5-2.9-17.2v-0.2c0-6.7,1-12.4,2.9-17.2c1.9-4.8,4.7-8.5,8.3-11c3.6-2.6,7.7-3.9,12.4-3.9s9,1.3,12.6,3.9
		c3.6,2.6,6.3,6.3,8.3,11.1s2.9,10.5,2.9,17.1L172.4,60L172.4,60z"/>
	<path class="st0" d="M313.3,61.7c3.4-6,5.1-12.6,5.1-19.8v-0.2c0-8.5-1.8-15.8-5.3-21.6s-8.7-10.3-15.5-13.4s-15.2-4.6-25.1-4.6
		h-52.1v115.7h34v-38h11.1l18.3,38h38l-22-43C305.4,72,309.9,67.6,313.3,61.7z M283.7,41.6c0,4.2-1.4,7.6-4.2,10.3
		c-2.8,2.6-6.5,3.9-11.1,3.9h-14.2V27.2h14.2c4.5,0,8.1,1.3,11,4c2.8,2.6,4.2,6.1,4.2,10.3V41.6z"/>
	<polygon class="st0" points="435.4,72.9 434.8,72.9 418.3,2.1 390.4,2.1 374,72.9 373.4,72.9 360,2.1 324.9,2.1 354.8,117.8 
		388.4,117.8 404.1,55.5 404.7,55.5 420.3,117.8 454,117.8 483.8,2.1 448.7,2.1 	"/>
	<polygon class="st1" points="495.4,37.1 583.5,59.6 583.5,60.2 495.4,82.8 495.4,117.8 611.1,80.8 611.1,70.4 611.1,60.2 611.1,39 
		495.4,2.1 	"/>
	<path class="st0" d="M715.7,61.7c3.4-6,5.1-12.6,5.1-19.8v-0.2c0-8.5-1.8-15.8-5.3-21.6C712,14.2,706.8,9.7,700,6.7
		s-15.2-4.6-25.1-4.6h-52.1v115.7h34v-38h11.1l18.3,38h38l-22-43C707.8,72,712.3,67.6,715.7,61.7L715.7,61.7z M686.2,41.6
		c0,4.2-1.4,7.6-4.2,10.3c-2.8,2.6-6.5,3.9-11.1,3.9h-14.2V27.2H671c4.5,0,8.2,1.3,11,4s4.2,6.1,4.2,10.3V41.6z"/>
	<path class="st0" d="M833.2,27.7c-4.4-8.4-10.8-14.8-19.1-19.2s-18.3-6.5-30-6.5h-49.5v115.7h49.5c11.7,0,21.7-2.3,30-6.9
		s14.7-11.3,19.1-20.1c4.4-8.8,6.6-19.3,6.6-31.7v-0.2C839.8,46.6,837.6,36.2,833.2,27.7z M805.2,59.1c0,7.1-1,13-2.9,17.7
		c-2,4.7-4.8,8.2-8.7,10.5s-8.6,3.5-14.3,3.5h-10.7V29.1h10.7c5.4,0,10,1.1,13.9,3.4c3.9,2.3,6.8,5.6,8.9,10.1
		c2.1,4.4,3.1,9.9,3.1,16.4V59.1L805.2,59.1z"/>
</g>
</svg>
